<svg xmlns="http://www.w3.org/2000/svg" version="1.1" xmlns:xlink="http://www.w3.org/1999/xlink" xmlns:svgjs="http://svgjs.dev/svgjs" width="100%" height="100%" viewBox="0 0 1000 600"><rect width="1000" height="600" x="0" y="0" fill="#295f2d"/><g><rect width="333.3333333333333" height="333.3333333333333" rx="13.333333333333334" ry="13.333333333333334" y="188.2642857715487" fill="#ffe67c" transform="matrix(0.7528212417139426,0,0,0.7528212417139428,0,32.80043204770537)" x="166.0420684814453"/><path d="M274.40900806201404 420.9927877813719L274.40900806201404 298.0761194340963L290.8404598995804 296.6312269412224Q291.8149222784954 304.1245066135686 292.5541696004309 314.3059583656803Q293.2598147713693 324.45380796679484 293.6294384323371 335.20649628585664Q293.9990620933048 345.9927867559156 293.9990620933048 355.67020624307116L293.9990620933048 355.67020624307116L293.9990620933048 428.01563733975905Q292.7893846574104 428.486067453718 290.2356211816332 429.09090617166527Q287.71545985685304 429.6957448896125 285.0608899280847 429.6957448896125L285.0608899280847 429.6957448896125Q279.7181479195508 429.6957448896125 277.06357799078245 427.64601367879135Q274.40900806201404 425.5962824679702 274.40900806201404 420.9927877813719L274.40900806201404 420.9927877813719ZM391.00847202184076 288.9027322118967L391.00847202184076 411.78579840817514L374.3082029762979 413.23069090104906Q371.88884810450895 392.93499169881983 371.55282659453826 371.7656365706669Q371.18320293357056 350.5962814425139 371.18320293357056 330.7374102032466L371.18320293357056 330.7374102032466L371.18320293357056 281.8798826535094Q372.6280954264445 281.37585038855343 375.04745029823334 280.7710116706062Q377.46680517002227 280.16617295265894 380.35659015577016 280.16617295265894L380.35659015577016 280.16617295265894Q385.699332164304 280.16617295265894 388.3539020930724 282.2495063144771Q391.00847202184076 284.29923752529834 391.00847202184076 288.9027322118967L391.00847202184076 288.9027322118967ZM372.86331048342396 409.13122847940673L391.00847202184076 404.5277337928084L391.00847202184076 403.55327141389347L391.00847202184076 425.8314975249496Q388.8243322070314 427.5116050748031 385.4641171073245 428.72128251069756Q382.07029985662064 429.93095994659194 377.93723528398124 429.93095994659194L377.93723528398124 429.93095994659194Q372.1576653124855 429.93095994659194 368.0246007398461 427.64601367879135Q363.9251383182038 425.32746525999363 360.5313210674999 419.2790780805214L360.5313210674999 419.2790780805214L314.5635785035106 341.85972218327623Q310.93454619582724 335.3409048898449 306.56626656620836 327.47800155653096Q302.23158908758654 319.615098223217 298.3673417229237 312.49144221183855Q294.4694922072638 305.33418404946303 292.3189545434514 300.7306893628647L292.3189545434514 300.7306893628647L274.40900806201404 305.33418404946303L274.40900806201404 284.29923752529834Q276.3243306688469 282.3503127674684 279.8525565235391 281.1406353315739Q283.3471802272342 279.93095789567946 287.4802447998736 279.93095789567946L287.4802447998736 279.93095789567946Q293.2598147713693 279.93095789567946 297.39287934400875 282.2495063144771Q301.492341765651 284.5344525822778 304.8861590163549 290.58283976175005L304.8861590163549 290.58283976175005L351.08911663732374 368.0021956589953Q354.9533640019866 374.5210129524265 359.1872350276172 382.38391628574044Q363.42110605324774 390.2468196190544 367.0501383609311 397.40407778143Q370.6791706686145 404.5277337928084 372.86331048342396 409.13122847940673L372.86331048342396 409.13122847940673Z " fill="#295f2d" transform="matrix(0.7528212417139426,0,0,0.7528212417139428,0,32.80043204770537)"/><path d="M645.8990752405363 368.14594669797026L645.8990752405363 368.14594669797026Q644.666333626271 369.0335206602413 642.6199825465907 369.74851079651506Q640.5736314669103 370.4635009327889 638.0834934060945 370.4635009327889L638.0834934060945 370.4635009327889Q635.2481876932844 370.4635009327889 633.029252787607 369.57592697051797Q630.8103178819294 368.688353008247 629.9227439196584 366.7406212577079L629.9227439196584 366.7406212577079Q620.5045979866718 346.8441716034666 613.5026256176452 330.3500888045973Q606.5006532486185 313.8313511734428 602.2353672632607 303.0078798001938L602.2353672632607 303.0078798001938L601.5203771269869 303.0078798001938Q600.9779708167101 316.32148923425865 600.3616000095774 327.85995074378155Q599.7452292024448 339.39841225330434 599.030239066171 350.1479191296974Q598.3152489298972 360.87277117380523 597.6988781227644 372.1400295281897Q597.0825073156318 383.43194271485953 596.194933353361 396.2031458386477L596.194933353361 396.2031458386477Q595.1347755650927 396.5483134906419 593.4335921374068 396.91813597492154Q591.7570635420059 397.26330362691573 589.8093317914668 397.26330362691573L589.8093317914668 397.26330362691573Q585.8892134581033 397.26330362691573 584.3113041918438 395.58677503151506Q582.708740093299 393.8855916038289 582.708740093299 391.05028589101886L582.708740093299 391.05028589101886Q582.708740093299 388.92997031448255 583.1525270744344 381.2130078091821Q583.5963140555699 373.4713904715962 584.2126848627025 362.30275144635294Q584.8290556698352 351.10945758882434 585.7166296321061 338.41221896189217Q586.6042035943772 325.73963516724524 587.5903968857893 313.38756419230737Q588.5519353449163 301.0601480496547 589.4395093071872 291.1242506386767L589.4395093071872 291.1242506386767Q590.8694895797349 289.8668541921261 593.5322114665479 288.80669640385804Q596.194933353361 287.7465386155899 599.5726453764478 287.7465386155899L599.5726453764478 287.7465386155899Q603.6406927035231 287.7465386155899 606.5006532486185 289.3491027141347Q609.3359589614286 290.92701198039424 610.9385230599735 294.30472400348106L610.9385230599735 294.30472400348106Q615.5489766973255 303.3530474521881 620.1594303346776 314.00393499944Q624.7698839720297 324.65482254669183 629.2077537833845 335.3057100939437Q633.6456235947396 345.9565976411955 637.7383257541003 355.3747435741822L637.7383257541003 355.3747435741822L638.4533158903741 355.3747435741822Q646.2442428925306 336.5631065404943 653.9858602301164 319.1567949470687Q661.7028227354169 301.77513818592854 667.0282665090429 289.5216865401319L667.0282665090429 289.5216865401319Q668.6308306075878 288.63411257786083 671.0963138361183 288.1903255967254Q673.586451896934 287.7465386155899 675.7314223057556 287.7465386155899L675.7314223057556 287.7465386155899Q679.799469632831 287.7465386155899 682.1909883645056 289.07789955899636Q684.6071619284655 290.40926050240284 685.297497232454 293.4171500412101L685.297497232454 293.4171500412101Q686.0124873687279 296.4496944123026 686.9000613309989 303.72286993646765Q687.7876352932699 310.9960454606327 688.6752092555408 320.85797837475485Q689.5627832178119 330.6952564565916 690.3763926832269 341.51872782984066Q691.1653473163567 352.36685403537496 691.8803374526306 362.82050292434434Q692.5953275889044 373.2988066455991 693.211698396037 381.7307592871735Q693.8280692031697 390.1627119287479 694.0006530291668 395.14298805037953L694.0006530291668 395.14298805037953Q692.398088930622 396.2031458386477 690.6229410060799 396.74555214892433Q688.847793081538 397.26330362691573 686.5548936790046 397.26330362691573L686.5548936790046 397.26330362691573Q683.8921717921917 397.26330362691573 681.8458207125113 395.93194268350925Q679.799469632831 394.60058174010277 679.4543019808367 391.05028589101886L679.4543019808367 391.05028589101886Q678.3941441925685 373.84121295587585 677.4079509011564 357.0512721695829Q676.4217576097442 340.2859862155754 675.7314223057556 326.25738664523664Q675.0164321694817 312.228787074898 674.4740258592051 303.3530474521881L674.4740258592051 303.3530474521881L673.7590357229312 303.3530474521881Q669.863572221853 313.11636103716893 663.1081481756793 328.4763215509142Q656.377378961791 343.8362820646593 645.8990752405363 368.14594669797026ZM796.6140650006072 355.202159748185L796.6140650006072 355.202159748185Q796.6140650006072 368.3431853562527 791.6337888789756 378.1064989412336Q786.6781675896292 387.8698125262145 777.6051893086368 393.1952562998404Q768.5568658599299 398.52070007346634 756.3034142141331 398.52070007346634L756.3034142141331 398.52070007346634Q744.0746174006217 398.52070007346634 734.9276746227735 393.1952562998404Q725.7807318449253 387.8698125262145 720.8004557232936 378.1064989412336Q715.8448344339472 368.3431853562527 715.8448344339472 355.202159748185L715.8448344339472 355.202159748185Q715.8448344339472 341.8885503141202 720.8990750524348 332.1992012259952Q725.9533156709224 322.53450697015563 735.1002584487707 317.2090631965296Q744.2472012266188 311.8836194229037 756.3034142141331 311.8836194229037L756.3034142141331 311.8836194229037Q768.3842820339327 311.8836194229037 777.4326054826398 317.2090631965296Q786.4809289313467 322.53450697015563 791.5598243821197 332.1992012259952Q796.6140650006072 341.8885503141202 796.6140650006072 355.202159748185ZM756.3034142141331 323.5946647584237L756.3034142141331 323.5946647584237Q744.419785052616 323.5946647584237 737.4178126835893 332.0266173999981Q730.3911854822774 340.4585700415725 730.3911854822774 355.202159748185L730.3911854822774 355.202159748185Q730.3911854822774 370.11833328079473 737.2205740253069 378.4516665932279Q744.0746174006217 386.7849999056611 756.3034142141331 386.7849999056611L756.3034142141331 386.7849999056611Q768.3842820339327 386.7849999056611 775.2136705769623 378.3530472640867Q782.0430591199919 369.92109462251227 782.0430591199919 355.202159748185L782.0430591199919 355.202159748185Q782.0430591199919 340.4585700415725 775.2136705769623 332.0266173999981Q768.3842820339327 323.5946647584237 756.3034142141331 323.5946647584237ZM889.6367472130639 342.0611341401173L889.6367472130639 342.0611341401173L889.6367472130639 360.1577810375314L875.4355638167281 360.1577810375314L875.4355638167281 342.77612427639116Q875.4355638167281 332.8402268654132 869.8389168879638 328.20511839577574Q864.2422699591995 323.5946647584237 854.8241240262129 323.5946647584237L854.8241240262129 323.5946647584237Q847.723532328045 323.5946647584237 842.2255047284219 325.3698126829657Q836.7274771287988 327.1449606075077 832.8320136277206 329.46251484232636L832.8320136277206 329.46251484232636L832.8320136277206 360.1577810375314L818.6308302313847 360.1577810375314L818.6308302313847 330.1775049786002Q818.6308302313847 326.42997047123384 820.1347750007884 324.0384517395592Q821.638719770192 321.64693300788457 825.3615994452731 319.3293787730659L825.3615994452731 319.3293787730659Q829.9720530826252 316.66665688625295 837.6150510910699 314.2751381545783Q845.2580490995146 311.8836194229037 854.8241240262129 311.8836194229037L854.8241240262129 311.8836194229037Q870.9976940053731 311.8836194229037 880.3172206092185 319.25541427620993Q889.6367472130639 326.6272091295163 889.6367472130639 342.0611341401173ZM818.6308302313847 390.70511823902456L818.6308302313847 350.3944674525505L832.8320136277206 350.3944674525505L832.8320136277206 395.8579781866534Q831.9444396654496 396.2031458386477 830.1692917409076 396.6469328197831Q828.3941438163657 397.09071980091863 826.2491734075442 397.09071980091863L826.2491734075442 397.09071980091863Q822.526293732463 397.09071980091863 820.5785619819238 395.58677503151506Q818.6308302313847 394.0828302621114 818.6308302313847 390.70511823902456L818.6308302313847 390.70511823902456ZM875.4355638167281 390.70511823902456L875.4355638167281 350.3944674525505L889.6367472130639 350.3944674525505L889.6367472130639 395.8579781866534Q888.749173250793 396.2031458386477 886.8754059971097 396.6469328197831Q885.0016387434265 397.09071980091863 883.0539069928874 397.09071980091863L883.0539069928874 397.09071980091863Q879.1584434918092 397.09071980091863 877.284676238126 395.58677503151506Q875.4355638167281 394.0828302621114 875.4355638167281 390.70511823902456L875.4355638167281 390.70511823902456ZM972.8714610082544 328.20511839577574L938.0834926536887 358.75245559726903L929.2077530309788 351.8244477250982L969.6909876434501 312.59860955917753Q973.9562736288078 312.77119338517474 976.3477923604825 314.64496063885787Q978.739311092157 316.49407306025586 978.739311092157 319.52661743134837L978.739311092157 319.52661743134837Q978.739311092157 321.9921006598789 977.2353663227535 323.9644872427032Q975.7314215533498 325.91221899324233 972.8714610082544 328.20511839577574L972.8714610082544 328.20511839577574ZM966.6584432723574 392.110443679287L928.8625853789846 354.14200195991685L938.7984827899626 348.2741518760143L983.8921710397859 388.75738648848545Q983.5223485555063 392.65284998956366 981.5006523081112 394.97040422438243Q979.454301228431 397.26330362691573 976.076589205344 397.26330362691573L976.076589205344 397.26330362691573Q973.4138673185311 397.26330362691573 971.1949324128536 395.8579781866534Q968.9759975071762 394.4279979141057 966.6584432723574 392.110443679287L966.6584432723574 392.110443679287ZM916.6091337331878 390.70511823902456L916.6091337331878 348.6193195280085L930.8103171295237 350.76428993683004L930.8103171295237 395.8579781866534Q929.9227431672526 396.2031458386477 928.1475952427107 396.6469328197831Q926.3724473181687 397.09071980091863 924.2521317416325 397.09071980091863L924.2521317416325 397.09071980091863Q920.504597234266 397.09071980091863 918.5568654837269 395.58677503151506Q916.6091337331878 394.0828302621114 916.6091337331878 390.70511823902456L916.6091337331878 390.70511823902456ZM930.8103171295237 286.3165583430422L930.8103171295237 357.6922978090009L916.6091337331878 355.5473274001793L916.6091337331878 281.16369839541335Q917.4967076954588 280.8185307434191 919.370474949142 280.37474376228363Q921.2195873705399 279.9309567811481 923.3645577793615 279.9309567811481L923.3645577793615 279.9309567811481Q927.0874374544425 279.9309567811481 928.9365498758405 281.4349015505518Q930.8103171295237 282.93884631995536 930.8103171295237 286.3165583430422L930.8103171295237 286.3165583430422ZM1067.4967073192558 355.91714988445887L1007.8566680211026 364.25048319689205L1007.1416778848287 353.05718933936345L1060.7412832730824 345.7840138151984Q1060.0509479690936 336.0207002302175 1054.010514059194 329.7337179974647Q1047.970080149294 323.4220809324266 1037.3191926020422 323.4220809324266L1037.3191926020422 323.4220809324266Q1026.3231374027962 323.4220809324266 1019.123926375487 331.31162726372423Q1011.924715348178 339.22582842730725 1011.924715348178 353.9447633016345L1011.924715348178 353.9447633016345L1011.924715348178 357.86488163499797Q1013.1821117947285 372.06606503133384 1021.2442419520233 379.4378598846401Q1029.3310269416033 386.7849999056611 1043.3596265119422 386.7849999056611L1043.3596265119422 386.7849999056611Q1050.8053858621042 386.7849999056611 1056.845819772004 384.3195166771305Q1062.8862536819038 381.8293786163147 1066.4365495309878 378.99407290350456L1066.4365495309878 378.99407290350456Q1068.384281281527 380.2268145177698 1069.5430583989364 381.9033431131706Q1070.7018355163455 383.6045265408566 1070.7018355163455 385.72484211739294L1070.7018355163455 385.72484211739294Q1070.7018355163455 389.10255414047975 1066.8803365121234 392.03647918243104Q1063.058837507901 394.97040422438243 1056.7472004428628 396.74555214892433Q1050.4602182101098 398.52070007346634 1042.6446363756681 398.52070007346634L1042.6446363756681 398.52070007346634Q1028.985859289609 398.52070007346634 1018.9513425494898 393.5404239518347Q1008.9168258093706 388.560147830203 1003.4927627066036 378.72286974836624Q998.0933544361216 368.8609368342441 998.0933544361216 354.65975343790836L998.0933544361216 354.65975343790836Q998.0933544361216 344.55127220093317 1001.027279478073 336.63707103735015Q1003.936549687739 328.7475247060525 1009.188028964509 323.2494971064295Q1014.4148534089937 317.75146950680636 1021.6880289331588 314.8175444648551Q1028.985859289609 311.8836194229037 1037.4917764280394 311.8836194229037L1037.4917764280394 311.8836194229037Q1048.3152478012885 311.8836194229037 1056.5746166168656 316.49407306025586Q1064.8339854324431 321.1045266976079 1069.5430583989364 329.3638955131851Q1074.2521313654297 337.62326432876233 1074.2521313654297 348.2741518760143L1074.2521313654297 348.2741518760143Q1074.2521313654297 352.1696153770925 1072.4769834408876 353.87079880477853Q1070.7018355163455 355.5473274001793 1067.4967073192558 355.91714988445887L1067.4967073192558 355.91714988445887ZM1111.5302377808111 377.90926028295115L1111.5302377808111 377.90926028295115Q1108.4976934097185 372.23864885733093 1104.2324074243606 362.57395460149127Q1099.9917762712882 352.88460551336635 1095.455287130792 340.90235702270803Q1090.9187979902958 328.9201085320496 1086.8507506632204 316.49407306025586L1086.8507506632204 316.49407306025586Q1088.0834922774857 314.71892513571385 1090.129843357166 313.6587673474457Q1092.1761944368466 312.59860955917753 1094.4690938393799 312.59860955917753L1094.4690938393799 312.59860955917753Q1097.5016382104723 312.59860955917753 1099.4493699610116 314.20117365772245Q1101.3971017115505 315.779082923982 1102.6544981581012 319.52661743134837L1102.6544981581012 319.52661743134837Q1107.9799419317271 334.4181361316727 1113.8231371833444 349.16172583828524Q1119.6909872672472 363.90531554489775 1126.791578965415 379.68440820749316L1126.791578965415 379.68440820749316L1127.506569101689 379.68440820749316Q1131.22944877677 372.23864885733093 1135.2974961038453 361.0453549998023Q1139.390198263206 349.8767159745591 1143.113077938287 337.45068050276524Q1146.8359576133682 325.0246450309714 1149.326095674184 314.00393499944L1149.326095674184 314.00393499944Q1150.5834921207347 313.4861835214486 1152.0874368901382 313.04239654031306Q1153.5913816595419 312.59860955917753 1155.3665295840838 312.59860955917753L1155.3665295840838 312.59860955917753Q1158.3744191228911 312.59860955917753 1160.3468057057153 314.1025543285812Q1162.2945374562546 315.6064990979848 1162.2945374562546 318.6390434690773L1162.2945374562546 318.6390434690773Q1162.2945374562546 321.4743491818875 1160.6919733577097 328.1311538989199Q1159.0894092591648 334.7879586159523 1156.352722875496 343.565078909521Q1153.5913816595419 352.36685403537496 1149.9424664813166 362.2041321172117Q1146.3182061353768 372.06606503133384 1142.1515394791602 381.5581754611763Q1137.9602179906583 391.05028589101886 1133.7195868375857 398.69328389946344L1133.7195868375857 398.69328389946344Q1125.5341825188643 413.78204125807025 1118.8034133049762 421.8441714153651Q1112.0479892588023 429.9309564049452 1106.3773778331824 429.9309564049452L1106.3773778331824 429.9309564049452Q1102.2846756738218 429.9309564049452 1100.0657407681442 427.810640828409Q1097.8468058624667 425.66567041958746 1097.3290543844753 422.8303647067773L1097.3290543844753 422.8303647067773Q1101.2245178855535 419.4526526836905 1106.1061746780438 413.85600575492623Q1110.9878314705343 408.28401365844724 1115.5243206110304 401.79979276741193Q1120.0361549192412 395.3155718763766 1122.8714606320514 389.44772179247406L1122.8714606320514 389.44772179247406Q1119.8635710932444 388.560147830203 1117.2994685355725 386.2672484276696Q1114.7107111456153 383.9496941928509 1111.5302377808111 377.90926028295115Z " fill="#ffe67c" transform="matrix(0.7528212417139426,0,0,0.7528212417139428,0,32.80043204770537)"/></g></svg>